<svg xmlns="http://www.w3.org/2000/svg" viewBox="0 0 256 256" width="256" height="256">
  <defs>
    <clipPath id="rounded">
      <rect x="0" y="0" width="256" height="256" rx="48" ry="48"/>
    </clipPath>
  </defs>
  <g clip-path="url(#rounded)">
    <rect x="0" y="0" width="256" height="256" fill="#4ECDC4"/>
    <rect x="20" y="180" width="70" height="60" rx="8" fill="#FF6B6B" stroke="#1A2A3A" stroke-width="3"/>
    <rect x="180" y="20" width="50" height="50" rx="8" fill="#FFE66D" stroke="#1A2A3A" stroke-width="3"/>
    <circle cx="50" cy="50" r="7" fill="#1A2A3A"/>
    <circle cx="210" cy="170" r="5" fill="#1A2A3A"/>
    <circle cx="180" cy="110" r="4" fill="#1A2A3A"/>
    <circle cx="128" cy="128" r="95" fill="none" stroke="#1A2A3A" stroke-width="4"/>
    <circle cx="128" cy="128" r="85" fill="none" stroke="#1A2A3A" stroke-width="1.5" stroke-dasharray="6 10"/>
    <line x1="128" y1="38" x2="128" y2="52" stroke="#1A2A3A" stroke-width="3" stroke-linecap="round"/>
    <line x1="218" y1="128" x2="204" y2="128" stroke="#1A2A3A" stroke-width="3" stroke-linecap="round"/>
    <line x1="128" y1="218" x2="128" y2="204" stroke="#1A2A3A" stroke-width="3" stroke-linecap="round"/>
    <line x1="38" y1="128" x2="52" y2="128" stroke="#1A2A3A" stroke-width="3" stroke-linecap="round"/>
    <path d="M 128 60 Q 196 60 196 128 Q 196 196 128 196 Q 60 196 60 128 Q 60 80 108 76"
          fill="none" stroke="#1A2A3A" stroke-width="5" stroke-linecap="round"/>
    <path d="M 108 76 Q 144 72 148 104 Q 152 140 128 140"
          fill="none" stroke="#FF6B6B" stroke-width="5" stroke-linecap="round"/>
    <circle cx="128" cy="128" r="12" fill="#1A2A3A" stroke="#FFE66D" stroke-width="2"/>
    <circle cx="128" cy="128" r="5" fill="#FF6B6B"/>
  </g>
  <rect x="0" y="0" width="256" height="256" rx="48" ry="48" fill="none" stroke="#1A2A3A" stroke-width="4"/>
</svg>